<svg id="Layer_1" data-name="Layer 1" xmlns="http://www.w3.org/2000/svg" viewBox="0 0 120 36"><defs><style>.cls-1{fill:#231f20;}.cls-1,.cls-2{fill-rule:evenodd;}.cls-2{fill:#0099d7;}</style></defs><path class="cls-1" d="M40.28,28.14a16.77,16.77,0,0,1-2.24.43,23.67,23.67,0,0,1-2.9.15q-3.84,0-5.7-1.54t-1.87-5.3V12.33H24.89V7.9h2.68V2.05h6.56V7.9h6.15v4.43H34.13v7.25c0,.72,0,1.35,0,1.89a3.89,3.89,0,0,0,.29,1.44,2,2,0,0,0,.9,1,3.86,3.86,0,0,0,1.89.37,5.33,5.33,0,0,0,1.34-.22,6,6,0,0,0,1.16-.41h.55Z"/><path class="cls-1" d="M57.77,15.5a4.6,4.6,0,0,0-1-3.1,3.9,3.9,0,0,0-3-1,4.84,4.84,0,0,0-3.11,1,4.27,4.27,0,0,0-1.36,3.16Zm6.52,3.84h-15A4.74,4.74,0,0,0,51.14,23a8.12,8.12,0,0,0,5,1.27,10.91,10.91,0,0,0,4-.76,12.74,12.74,0,0,0,3.07-1.62h.73v5.27a25,25,0,0,1-4.19,1.29,21.61,21.61,0,0,1-4.35.4q-6.15,0-9.43-2.76t-3.27-7.88a10.53,10.53,0,0,1,3.1-8c2.07-2,4.9-3,8.51-3,3.32,0,5.81.83,7.49,2.52s2.51,4.09,2.51,7.25Z"/><path class="cls-1" d="M77.38,23.06l-1.91,2.32v2.93H68.91V0h6.56V16.74l6-7.5a5,5,0,0,0,.59.88,6.57,6.57,0,0,0,4.32,2.24L83.46,15.8l-6.1,7.25Zm13.21,5.25H83l-4-6,4.17-4.94Z"/><path class="cls-1" d="M111.77,18.42a10.64,10.64,0,0,0,.39,3.3,3.51,3.51,0,0,0,1.16,1.7,2.54,2.54,0,0,0,3.22,0,3.38,3.38,0,0,0,1.13-1.7,10,10,0,0,0,.49-3.31,9.83,9.83,0,0,0-.44-3.2,3.66,3.66,0,0,0-1.19-1.81,2.51,2.51,0,0,0-3.21,0,3.49,3.49,0,0,0-1.15,1.69,10.35,10.35,0,0,0-.4,3.32m-1.22,0a11.11,11.11,0,0,1,.55-4,4.51,4.51,0,0,1,1.55-2.11,3.72,3.72,0,0,1,2.24-.72,3.79,3.79,0,0,1,2.27.73,4.81,4.81,0,0,1,1.61,2.16,10.64,10.64,0,0,1,.59,3.89,10.51,10.51,0,0,1-.58,3.87,4.83,4.83,0,0,1-1.61,2.17,3.86,3.86,0,0,1-2.28.74,3.75,3.75,0,0,1-2.23-.71,4.56,4.56,0,0,1-1.55-2.12A11.15,11.15,0,0,1,110.55,18.39Zm-5.36.09a2.6,2.6,0,0,0-1.92.79,2.63,2.63,0,0,0-.8,1.93,2.72,2.72,0,1,0,4.64-1.93A2.63,2.63,0,0,0,105.19,18.48Zm1.42-6.87,1.06.69-3.5,5.28a4.08,4.08,0,0,1,1.32-.23,3.51,3.51,0,0,1,2.62,1.11,3.8,3.8,0,0,1,1.07,2.73,3.89,3.89,0,0,1-.52,2,3.84,3.84,0,0,1-1.47,1.44,4.21,4.21,0,0,1-2.06.53,3.9,3.9,0,0,1-2-.52,3.67,3.67,0,0,1-1.43-1.44,4.1,4.1,0,0,1-.52-2,4.76,4.76,0,0,1,.33-1.67,10.22,10.22,0,0,1,1.14-2.1ZM92.44,14.94H91.11a4.43,4.43,0,0,1,1.37-2.47,3.62,3.62,0,0,1,2.4-.86,3.93,3.93,0,0,1,1.88.46,3.45,3.45,0,0,1,1.35,1.24A3.09,3.09,0,0,1,98.59,15a3,3,0,0,1-1.65,2.64,3.71,3.71,0,0,1,1.52,1.1,3.56,3.56,0,0,1,.85,2.3,4.15,4.15,0,0,1-.58,2.09,4,4,0,0,1-1.58,1.54,4.64,4.64,0,0,1-2.24.55,4.06,4.06,0,0,1-2.78-1,4.67,4.67,0,0,1-1.45-2.83h1.25a3.75,3.75,0,0,0,1,1.83,3,3,0,0,0,2,.71,3.08,3.08,0,0,0,2.26-.84,2.72,2.72,0,0,0,.85-2,2.51,2.51,0,0,0-.43-1.41,2.78,2.78,0,0,0-1.13-1,6.38,6.38,0,0,0-2.22-.41V17.09a4.07,4.07,0,0,0,1.62-.31A2.35,2.35,0,0,0,96.93,16a1.81,1.81,0,0,0,.33-1.05,2,2,0,0,0-.67-1.46,2.41,2.41,0,0,0-1.7-.61,2.22,2.22,0,0,0-1.43.47A3.51,3.51,0,0,0,92.44,14.94Z"/><path class="cls-2" d="M83.43,8a2.85,2.85,0,0,1,2.7,1c.69.81.58,1.67-.23,1.93a2.86,2.86,0,0,1-2.7-1c-.68-.81-.58-1.67.23-1.92"/><path class="cls-2" d="M14.79,21.86V12.62a6.61,6.61,0,0,0-1.38-.38,9,9,0,0,0-1.47-.13,4.85,4.85,0,0,0-3.87,1.48,6.06,6.06,0,0,0-1.29,4.13c0,2,.37,3.33,1.1,4.11A4.29,4.29,0,0,0,11.14,23a6.27,6.27,0,0,0,1.92-.31,7.45,7.45,0,0,0,1.73-.82M21.35,26a12.69,12.69,0,0,1-.82,4.83,7.28,7.28,0,0,1-2.29,3.08,9.47,9.47,0,0,1-3.56,1.62A20.44,20.44,0,0,1,10,36a34.32,34.32,0,0,1-4.2-.26,30.66,30.66,0,0,1-3.57-.62V30H3a19.37,19.37,0,0,0,2.93.87,13.64,13.64,0,0,0,3.09.4,10.51,10.51,0,0,0,3-.34,3.9,3.9,0,0,0,1.74-1,3.47,3.47,0,0,0,.82-1.49,8.52,8.52,0,0,0,.25-2.17v-.38a9.65,9.65,0,0,1-2.62,1.52A8.65,8.65,0,0,1,9,28a8.5,8.5,0,0,1-6.63-2.59C.78,23.71,0,21.1,0,17.58a12.09,12.09,0,0,1,.71-4.35,9.64,9.64,0,0,1,2-3.2,8.15,8.15,0,0,1,3-2,9.53,9.53,0,0,1,3.59-.71,10.94,10.94,0,0,1,3,.39,9.77,9.77,0,0,1,2.46,1.08L15,7.9h6.36Z"/><path class="cls-2" d="M83.43,4.28a2.85,2.85,0,0,1,2.7,1c.69.81.58,1.68-.23,1.93a2.85,2.85,0,0,1-2.7-1c-.68-.81-.58-1.67.23-1.93"/><path class="cls-2" d="M87.6,8a2.87,2.87,0,0,1,2.71,1c.68.81.58,1.67-.23,1.93a2.86,2.86,0,0,1-2.7-1c-.69-.81-.59-1.67.22-1.92"/><path class="cls-2" d="M87.53,4a2.85,2.85,0,0,1,2.71,1c.68.81.58,1.67-.23,1.92a2.85,2.85,0,0,1-2.7-1c-.69-.81-.59-1.67.22-1.92"/></svg>